<svg aria-hidden="true" style="position: absolute; width: 0; height: 0; overflow: hidden;" version="1.1" xmlns="http://www.w3.org/2000/svg" xmlns:xlink="http://www.w3.org/1999/xlink">
<defs>
<symbol id="icon-finger" viewBox="0 0 24 32">
<path d="M11.586 0.367c2.231 0 4.138 0.779 5.719 2.336 1.582 1.557 2.372 3.452 2.372 5.683 0 1.276-0.276 2.476-0.828 3.605-0.568 1.148-1.356 2.107-2.317 2.855l-0.018 0.014h-1.251v-1.839c0.692-0.546 1.246-1.236 1.623-2.026l0.015-0.034c0.359-0.746 0.569-1.622 0.569-2.547 0-0.009-0-0.019-0-0.028v0.001c0-1.619-0.576-2.991-1.728-4.119-1.153-1.129-2.538-1.693-4.157-1.693s-3.004 0.564-4.157 1.693c-1.151 1.128-1.728 2.5-1.728 4.119 0 0.907 0.19 1.766 0.569 2.574 0.392 0.824 0.946 1.514 1.626 2.051l0.012 0.009v2.648c-1.355-0.698-2.454-1.726-3.218-2.98l-0.020-0.035c-0.739-1.198-1.177-2.65-1.177-4.205 0-0.022 0-0.044 0-0.066l-0 0.003c0-2.231 0.79-4.126 2.372-5.683 1.581-1.557 3.487-2.336 5.719-2.336zM10.188 31.264c-0.416 0-0.809-0.079-1.176-0.238-0.371-0.161-0.689-0.378-0.957-0.645l-7.577-7.576 2.060-2.134c0.343-0.342 0.729-0.607 1.159-0.79 0.236-0.105 0.512-0.167 0.802-0.167 0.192 0 0.379 0.027 0.555 0.077l-0.014-0.003 2.869 0.662v-11.99c0-1.031 0.355-1.901 1.066-2.612 0.712-0.711 1.582-1.067 2.612-1.067s1.9 0.356 2.612 1.067c0.711 0.711 1.066 1.581 1.066 2.612v6.326h0.957c0.122 0 0.233 0.024 0.331 0.074 0.098 0.049 0.209 0.097 0.331 0.147l5.443 2.648c0.589 0.269 1.024 0.705 1.306 1.305 0.281 0.601 0.361 1.22 0.238 1.858l-1.324 8.018c-0.117 0.714-0.492 1.324-1.024 1.743l-0.006 0.004c-0.51 0.423-1.17 0.68-1.891 0.68-0.007 0-0.015-0-0.022-0h-9.416zM9.895 29.057h10.335l1.582-9.159-6.731-3.347h-2.024v-8.092c0-0.441-0.135-0.798-0.404-1.067-0.27-0.269-0.626-0.405-1.067-0.405s-0.797 0.136-1.067 0.405c-0.269 0.269-0.404 0.626-0.404 1.067v14.676l-5.665-1.214-0.845 0.845 6.29 6.29zM20.23 29.057v0z"></path>
</symbol>
<symbol id="icon-rocket" viewBox="0 0 32 32">
<path d="M7.233 13.633l3.534 1.5c0.4-0.8 0.827-1.588 1.283-2.366s0.939-1.522 1.45-2.234l-2.633-0.533-3.634 3.633zM12.367 16.333l4.433 4.434c1.383-0.632 2.553-1.289 3.663-2.027l-0.096 0.060c1.11-0.733 2.010-1.444 2.7-2.133 1.8-1.8 3.122-3.645 3.966-5.534s1.3-4.022 1.367-6.4c-2.378 0.067-4.511 0.523-6.4 1.367s-3.733 2.167-5.533 3.967c-0.69 0.689-1.4 1.589-2.134 2.7-0.678 1.014-1.334 2.183-1.899 3.404l-0.067 0.162zM20 13.133c-0.444-0.444-0.667-0.994-0.667-1.65 0-0.655 0.223-1.205 0.667-1.65s0.994-0.666 1.65-0.666 1.206 0.222 1.65 0.666c0.444 0.445 0.667 0.995 0.667 1.65s-0.223 1.206-0.667 1.65c-0.444 0.445-0.994 0.667-1.65 0.667s-1.206-0.222-1.65-0.667zM19.5 25.9l3.633-3.633-0.533-2.634c-0.711 0.512-1.456 0.995-2.233 1.45-0.778 0.456-1.567 0.884-2.367 1.284l1.5 3.533zM30.367 2.767c0.2 3.022-0.178 5.777-1.134 8.266-0.955 2.49-2.533 4.834-4.733 7.034l-0.067 0.066-0.066 0.067 0.733 3.667c0.067 0.333 0.050 0.655-0.050 0.966-0.1 0.312-0.272 0.59-0.517 0.834l-5.7 5.733-2.833-6.6-5.667-5.667-6.6-2.833 5.734-5.7c0.244-0.244 0.522-0.417 0.833-0.517s0.633-0.116 0.967-0.050l3.666 0.734c0.019-0.020 0.041-0.036 0.066-0.049l0.001-0.001c0.026-0.014 0.048-0.030 0.067-0.050l0-0c2.2-2.2 4.544-3.784 7.033-4.75s5.244-1.35 8.267-1.15zM5.967 21.167c0.777-0.778 1.727-1.173 2.85-1.184 1.122-0.010 2.072 0.373 2.85 1.15 0.777 0.778 1.16 1.728 1.15 2.85-0.011 1.123-0.406 2.073-1.184 2.85-0.577 0.578-1.472 1.056-2.683 1.434s-3.028 0.733-5.45 1.066c0.333-2.422 0.683-4.244 1.050-5.466s0.839-2.123 1.417-2.7zM7.367 22.6c-0.311 0.333-0.59 0.856-0.834 1.567s-0.455 1.622-0.633 2.733c1.111-0.178 2.022-0.389 2.733-0.633 0.711-0.245 1.234-0.523 1.567-0.834 0.422-0.377 0.639-0.85 0.65-1.416 0.001-0.018 0.001-0.040 0.001-0.061 0-0.555-0.223-1.057-0.584-1.423l0 0c-0.366-0.361-0.869-0.584-1.423-0.584-0.021 0-0.043 0-0.064 0.001l0.003-0c-0.565 0.001-1.071 0.252-1.414 0.648l-0.002 0.002z"></path>
</symbol>
<symbol id="icon-x-close" viewBox="0 0 32 32">
<path stroke-linejoin="round" stroke-linecap="round" stroke-miterlimit="4" stroke-width="2.2857" d="M24 8l-16 16M8 8l16 16"></path>
</symbol>
<symbol id="icon-Stars-1" viewBox="0 0 180 32">
<path fill="#ffe550" style="fill: var(--color1, #ffe550)" d="M13.707 2.19c0.233-0.557 0.774-0.942 1.404-0.942s1.171 0.384 1.401 0.932l0.004 0.010 3.065 7.403c0.219 0.53 0.715 0.891 1.284 0.937l7.957 0.64c1.348 0.108 1.895 1.799 0.868 2.684l-6.062 5.214c-0.327 0.282-0.532 0.697-0.532 1.16 0 0.126 0.015 0.248 0.044 0.365l-0.002-0.011 1.852 7.799c0.313 1.321-1.118 2.364-2.272 1.657l-6.812-4.178c-0.226-0.141-0.499-0.224-0.793-0.224s-0.567 0.083-0.799 0.228l0.006-0.004-6.812 4.178c-1.156 0.709-2.585-0.336-2.272-1.657l1.852-7.799c0.026-0.106 0.042-0.229 0.042-0.354 0-0.463-0.206-0.878-0.53-1.159l-0.002-0.002-6.062-5.216c-1.028-0.884-0.48-2.574 0.868-2.683l7.957-0.64c0.581-0.049 1.065-0.417 1.28-0.927l0.004-0.010 3.065-7.403zM51.040 2.19c0.233-0.557 0.774-0.942 1.404-0.942s1.171 0.384 1.401 0.932l0.004 0.010 3.065 7.403c0.219 0.53 0.715 0.891 1.284 0.937l7.957 0.64c1.348 0.108 1.895 1.799 0.868 2.684l-6.062 5.214c-0.327 0.282-0.532 0.697-0.532 1.16 0 0.126 0.015 0.248 0.044 0.365l-0.002-0.011 1.852 7.799c0.313 1.321-1.118 2.364-2.272 1.657l-6.812-4.178c-0.226-0.141-0.499-0.224-0.793-0.224s-0.567 0.083-0.799 0.228l0.006-0.004-6.812 4.178c-1.156 0.709-2.585-0.336-2.272-1.657l1.852-7.799c0.026-0.106 0.042-0.229 0.042-0.354 0-0.463-0.206-0.878-0.53-1.159l-0.002-0.002-6.062-5.216c-1.028-0.884-0.48-2.574 0.868-2.683l7.957-0.64c0.581-0.049 1.065-0.417 1.28-0.927l0.004-0.010 3.065-7.403zM88.373 2.19c0.233-0.557 0.774-0.942 1.404-0.942s1.171 0.384 1.401 0.932l0.004 0.010 3.065 7.403c0.219 0.53 0.715 0.891 1.284 0.937l7.957 0.64c1.348 0.108 1.895 1.799 0.868 2.684l-6.062 5.214c-0.327 0.282-0.532 0.697-0.532 1.16 0 0.126 0.015 0.248 0.044 0.365l-0.002-0.011 1.852 7.799c0.313 1.321-1.118 2.364-2.272 1.657l-6.812-4.178c-0.226-0.141-0.499-0.224-0.793-0.224s-0.567 0.083-0.799 0.228l0.006-0.004-6.812 4.178c-1.156 0.709-2.585-0.336-2.272-1.657l1.852-7.799c0.027-0.107 0.042-0.23 0.042-0.356 0-0.462-0.205-0.877-0.529-1.157l-0.002-0.002-6.064-5.216c-1.029-0.884-0.482-2.574 0.866-2.683l7.957-0.64c0.581-0.049 1.065-0.417 1.28-0.927l0.004-0.010 3.065-7.403zM125.707 2.19c0.233-0.557 0.774-0.942 1.404-0.942s1.171 0.384 1.401 0.932l0.004 0.010 3.065 7.403c0.22 0.53 0.715 0.891 1.284 0.937l7.957 0.64c1.348 0.108 1.895 1.799 0.868 2.684l-6.062 5.214c-0.327 0.282-0.532 0.697-0.532 1.16 0 0.126 0.015 0.248 0.044 0.365l-0.002-0.011 1.852 7.799c0.313 1.321-1.118 2.364-2.272 1.657l-6.812-4.178c-0.226-0.141-0.499-0.224-0.793-0.224s-0.567 0.083-0.799 0.228l0.006-0.004-6.812 4.178c-1.156 0.709-2.585-0.336-2.272-1.657l1.852-7.799c0.026-0.106 0.042-0.229 0.042-0.354 0-0.463-0.206-0.878-0.53-1.159l-0.002-0.002-6.062-5.216c-1.028-0.884-0.48-2.574 0.868-2.683l7.957-0.64c0.581-0.049 1.065-0.417 1.28-0.927l0.004-0.010 3.065-7.403zM163.040 2.19c0.233-0.557 0.774-0.942 1.404-0.942s1.171 0.384 1.401 0.932l0.004 0.010 3.065 7.403c0.22 0.53 0.715 0.891 1.284 0.937l7.957 0.64c1.348 0.108 1.895 1.799 0.868 2.684l-6.062 5.214c-0.327 0.282-0.532 0.697-0.532 1.16 0 0.126 0.015 0.248 0.044 0.365l-0.002-0.011 1.852 7.799c0.313 1.321-1.118 2.364-2.272 1.657l-6.812-4.178c-0.226-0.141-0.5-0.224-0.793-0.224s-0.567 0.083-0.799 0.228l0.006-0.004-6.812 4.178c-1.156 0.709-2.585-0.336-2.272-1.657l1.852-7.799c0.026-0.106 0.042-0.229 0.042-0.354 0-0.463-0.206-0.878-0.53-1.159l-0.002-0.002-6.062-5.216c-1.028-0.884-0.48-2.574 0.868-2.683l7.957-0.64c0.581-0.049 1.065-0.417 1.28-0.927l0.004-0.010 3.065-7.403z"></path>
</symbol>
</defs>
</svg>
